<svg width="88" height="88" viewBox="0 0 88 88" fill="none" xmlns="http://www.w3.org/2000/svg">
<path d="M64.9 41.25C67.2473 41.388 69.0421 41.9991 70.4 42.852M64.9 41.25V34.15C64.9 31.3885 62.6614 29.15 59.9 29.15H48.45C45.6886 29.15 43.45 31.3886 43.45 34.15V41.25M64.9 41.25H43.45M21.45 41.25C19.9834 41.25 17.7834 41.6625 15.95 42.9M21.45 41.25V34.15C21.45 31.3885 23.6886 29.15 26.45 29.15H37.35C40.1115 29.15 42.35 31.3886 42.35 34.15V41.25M21.45 41.25H42.35M15.95 65.45H12.65V49.5C12.65 46.2 14.1167 44.1375 15.95 42.9M15.95 65.45V72.05H23.1V65.45M15.95 65.45H23.1M23.1 65.45H63.8M70.4 65.45H74.25V49.5C74.25 47.7387 73.3695 44.7171 70.4 42.852M70.4 65.45V72.05H63.8V65.45M70.4 65.45H63.8M70.4 42.852V27.6C70.4 22.0771 65.9229 17.6 60.4 17.6H25.95C20.4272 17.6 15.95 22.0771 15.95 27.6V42.9M42.35 41.25H43.45" stroke="#A3BD80" stroke-width="2.7" stroke-linecap="round" stroke-linejoin="round"/>
</svg>
