<svg width="103" height="106" viewBox="0 0 103 106" fill="none" xmlns="http://www.w3.org/2000/svg">
<path d="M17.1456 30.8862V48.9722C7.05958 57.608 10.4598 65.0066 13.4206 68.8573C20.9087 79.0082 31.4404 81.7353 35.7702 81.83H67.2889C71.7779 81.5144 82.4943 78.4779 89.4475 68.8573C96.4007 59.2367 89.4157 52.4127 85.054 48.9722V30.8862C84.9012 13.0086 71.6187 9.42294 64.9966 9.86483H35.7702C20.3356 9.86483 16.9227 23.8791 17.1456 30.8862Z" fill="#A3BD80"/>
<path d="M6.89044 40.5301L9.7672 19.6984C10.9576 13.3166 16.4333 0.592757 28.8133 0.751475C41.1933 0.910193 64.3264 0.817607 74.3455 0.751475C80.8926 0.751475 89.4038 5.8106 91.7052 19.6984C94.0066 33.5862 94.8465 39.3728 94.9788 40.5301" stroke="black" stroke-width="1.5" stroke-linecap="round" stroke-linejoin="round"/>
<path d="M16.7111 50.0532H8.80272C4.12291 50.0532 0.148836 53.7706 0.827009 58.401C3.5887 77.2572 18.8254 86.8618 29.072 90.2256C31.1816 90.9182 33.4057 91.1214 35.6261 91.1214H66.5723C69.2948 91.1214 72.0332 90.7957 74.5957 89.8758C93.2851 83.1663 100.192 68.9846 101.943 58.29C102.699 53.668 98.7347 50.0532 94.0512 50.0532H85.5549C80.2407 50.0532 75.9326 54.3612 75.9326 59.6755C75.5359 67.3733 69.9477 70.0913 67.2032 70.4881C59.9286 70.8188 43.5344 71.2817 36.154 70.4881C28.7736 69.6945 26.5317 62.949 26.3334 59.6755C26.3334 54.3612 22.0253 50.0532 16.7111 50.0532Z" stroke="black" stroke-width="1.5" stroke-linecap="round" stroke-linejoin="round"/>
<path d="M87.3405 104.91L83.1742 85.8639C79.4046 88.1454 74.9738 89.7326 73.3535 90.3278L83.1742 104.91H87.3405Z" stroke="black" stroke-width="1.5" stroke-linecap="round" stroke-linejoin="round"/>
<path d="M15.4216 104.91L19.5879 85.8639C23.3575 88.1454 27.7883 89.7326 29.4086 90.3278L19.5879 104.91H15.4216Z" stroke="black" stroke-width="1.5" stroke-linecap="round" stroke-linejoin="round"/>
</svg>
