<svg width="88" height="88" viewBox="0 0 88 88" fill="none" xmlns="http://www.w3.org/2000/svg">
<path d="M11 38.1333L20.2607 18.8995C20.4274 18.5534 20.7776 18.3333 21.1617 18.3333H67.5716C67.9558 18.3333 68.3059 18.5534 68.4726 18.8995L77.7333 38.1333M11 38.1333H77.7333M11 38.1333V46.6666C11 47.2189 11.4477 47.6666 12 47.6666H15.4M77.7333 38.1333V46.6666C77.7333 47.2189 77.2856 47.6666 76.7333 47.6666H73.3333M15.4 47.6666V70.6333C15.4 70.9095 15.6239 71.1333 15.9 71.1333H23.7C23.9761 71.1333 24.2 70.9095 24.2 70.6333V47.6666M15.4 47.6666H24.2M24.2 47.6666H63.8M73.3333 47.6666V70.6333C73.3333 70.9095 73.1095 71.1333 72.8333 71.1333H64.3C64.0239 71.1333 63.8 70.9095 63.8 70.6333V47.6666M73.3333 47.6666H63.8" stroke="#A3BD80" stroke-width="2.7" stroke-linecap="round" stroke-linejoin="round"/>
</svg>
