<svg width="88" height="88" viewBox="0 0 88 88" fill="none" xmlns="http://www.w3.org/2000/svg">
<path d="M67.0735 33.5944V21.5083C67.0735 14.5606 62.2246 12.1 57.6651 12.1H30.5981C26.0386 12.1 21.1897 14.5606 21.1897 21.5083V33.5944C17.8606 34.4629 15.4 37.4301 15.4 41.0487V60.4443C15.4 66.1617 19.2357 68.4052 22.999 68.6224V73.5436C22.999 74.9911 24.157 76.149 25.6044 76.149H28.2822C29.7296 76.149 30.8876 74.9911 30.8876 73.5436V68.6224H57.448V73.5436C57.448 74.9911 58.606 76.149 60.0534 76.149H62.7312C64.1786 76.149 65.3365 74.9911 65.3365 73.5436V68.6224C70.9092 68.3329 72.9356 64.28 72.9356 60.4443V40.9763C72.7908 37.4301 70.3302 34.3905 67.0735 33.5944ZM23.7951 21.5083C23.7951 15.5738 28.0651 14.633 30.5981 14.633H57.6651C60.1981 14.633 64.4681 15.5015 64.4681 21.4359V33.3049C60.56 33.6668 57.448 36.9235 57.448 40.9763V42.7856H30.8152V40.9763C30.8152 36.9235 27.7032 33.6668 23.7951 33.3049V21.5083ZM57.3756 45.391V54.3651H30.8152V45.391H57.3756ZM28.2822 73.5436H25.6044V68.6224H28.2822V73.5436ZM62.6588 73.5436H59.981V68.6224H62.6588V73.5436ZM70.3302 60.4443H70.2578C70.2578 62.9774 69.317 66.0893 64.6128 66.0893H62.6588H59.981H28.2822H25.6044H23.6504C21.1174 66.0893 18.0054 65.1485 18.0054 60.4443V40.9763C18.0054 38.1538 20.3213 35.8379 23.1438 35.8379C25.9663 35.8379 28.2822 38.1538 28.2822 40.9763V55.6678C28.2822 56.3915 28.8612 56.9705 29.5849 56.9705H58.7507C59.4744 56.9705 60.0534 56.3915 60.0534 55.6678V40.9763C60.0534 38.1538 62.3693 35.8379 65.1918 35.8379C68.0143 35.8379 70.3302 38.1538 70.3302 40.9763V60.4443Z" fill="#A3BD80"/>
</svg>
