<svg width="88" height="88" viewBox="0 0 88 88" fill="none" xmlns="http://www.w3.org/2000/svg">
<path d="M83.6387 33.8454H81.8904V27.3477C81.8904 23.5064 78.7653 20.3814 74.9241 20.3814H49.6772C47.3368 20.3814 45.2638 21.5428 44 23.3181C42.7362 21.5426 40.6632 20.3814 38.3228 20.3814H16.2743C15.5624 20.3814 14.9853 20.9586 14.9853 21.6705C14.9853 22.3824 15.5624 22.9595 16.2743 22.9595H38.3228C40.7425 22.9595 42.7109 24.928 42.7109 27.3477V40.24C42.684 40.2141 42.6554 40.1898 42.6281 40.1642C41.1001 38.7396 39.0292 37.9183 36.9389 37.9183H15.4669C15.3532 36.1876 14.1733 34.6653 12.5452 34.0881C12.0864 33.9255 11.6014 33.8454 11.1148 33.8454H8.68777V27.3477C8.68777 24.928 10.6563 22.9595 13.0759 22.9595H17.3056C18.0175 22.9595 18.5946 22.3824 18.5946 21.6705C18.5946 20.9586 18.0175 20.3814 17.3056 20.3814H13.0759C9.23467 20.3814 6.10964 23.5064 6.10964 27.3477V33.8454H4.36133C1.95645 33.8454 0 35.8022 0 38.2067V51.6665C0 56.6745 4.07447 60.749 9.08256 60.749H9.73036C9.73036 60.749 8.31892 64.5454 8.31789 64.5483C7.42741 66.9432 9.26028 69.5741 11.8113 69.5741H13.8851C15.0459 69.5741 16.1571 69.0214 16.8575 68.0955L22.4144 60.749H65.586L71.1428 68.0956C71.8432 69.0214 72.9544 69.5741 74.1151 69.5741C74.1151 69.5741 76.1875 69.5741 76.1888 69.5741C78.7428 69.5741 80.5724 66.9427 79.6821 64.5483L78.2695 60.749H78.9174C83.9255 60.749 88 56.6745 88 51.6665V38.2067C88 35.8022 86.0435 33.8454 83.6387 33.8454ZM45.2891 27.348C45.2891 24.9282 47.2575 22.9597 49.6772 22.9597H74.9241C77.3438 22.9597 79.3122 24.9282 79.3122 27.3478V33.8456C79.3122 33.8456 76.8859 33.8456 76.885 33.8456C75.1711 33.8456 73.5269 34.9456 72.8621 36.5237C72.676 36.9656 72.5644 37.4404 72.5331 37.9187C72.5331 37.9187 51.0618 37.9187 51.0611 37.9187C48.9385 37.9187 46.8229 38.7727 45.2891 40.2404V27.348ZM15.4763 40.4966H36.9389C40.1216 40.4968 42.7109 43.0861 42.7109 46.2689V48.1019H15.4763V40.4966ZM14.8014 66.5402C14.5855 66.8257 14.2428 66.996 13.8849 66.996C13.8849 66.996 11.8183 66.996 11.8111 66.996C11.0218 66.996 10.4593 66.1863 10.7343 65.4469L12.4809 60.749H19.1816L14.8014 66.5402ZM76.1888 66.9958H74.1151C73.7572 66.9958 73.4147 66.8255 73.1988 66.5402L68.8184 60.749H75.5191C75.5191 60.749 77.2597 65.4304 77.2657 65.4467C77.5412 66.1878 76.9747 66.9958 76.1888 66.9958ZM78.9174 58.1709H9.08256C5.49605 58.1711 2.57812 55.253 2.57812 51.6665V38.2067C2.57812 37.2234 3.37803 36.4235 4.36133 36.4235H11.1148C12.0981 36.4235 12.898 37.2234 12.898 38.2067V49.3908C12.898 50.1027 13.4752 50.6799 14.1871 50.6799H68.7534C69.4653 50.6799 70.0425 50.1027 70.0425 49.3908C70.0425 48.6789 69.4653 48.1018 68.7534 48.1018H45.2891V46.2687C45.2891 43.0859 47.8784 40.4966 51.0611 40.4966H72.5237V48.1019H66.6909C65.979 48.1019 65.4019 48.6791 65.4019 49.391C65.4019 50.1029 65.979 50.6801 66.6909 50.6801H73.8128C74.5247 50.6801 75.1018 50.1029 75.1018 49.391V38.2069C75.1018 37.2236 75.9017 36.4237 76.885 36.4237H83.6385C84.6218 36.4237 85.4217 37.2236 85.4217 38.2069V51.6665H85.4219C85.4219 55.253 82.504 58.1709 78.9174 58.1709Z" fill="#A3BD80"/>
</svg>
